<svg width="48" height="48" viewBox="0 0 48 48" xmlns="http://www.w3.org/2000/svg">
  <!-- Background circle with gradient -->
  <defs>
    <linearGradient id="bgGrad" x1="0%" y1="0%" x2="100%" y2="100%">
      <stop offset="0%" style="stop-color:#0052CC;stop-opacity:1" />
      <stop offset="100%" style="stop-color:#0747A6;stop-opacity:1" />
    </linearGradient>
    <filter id="glow">
      <feGaussianBlur stdDeviation="1" result="coloredBlur"/>
      <feMerge>
        <feMergeNode in="coloredBlur"/>
        <feMergeNode in="SourceGraphic"/>
      </feMerge>
    </filter>
  </defs>
  
  <circle cx="24" cy="24" r="24" fill="url(#bgGrad)"/>
  
  <!-- Letter J with shadow -->
  <path d="M 28 12 L 28 28 Q 28 33 24 33 Q 20 33 20 28 L 22.5 28 Q 22.5 30.5 24 30.5 Q 25.5 30.5 25.5 28 L 25.5 12 Z" 
        fill="white" filter="url(#glow)"/>
  
  <!-- Firework sparks - Top -->
  <circle cx="33" cy="9" r="1.8" fill="#FFD700" opacity="0.9"/>
  <circle cx="34.5" cy="7.5" r="1.2" fill="#FFA500" opacity="0.8"/>
  <circle cx="35" cy="10" r="0.9" fill="#FFD700" opacity="0.7"/>
  
  <!-- Top right sparks -->
  <circle cx="37" cy="15" r="1.5" fill="#FF6B6B" opacity="0.9"/>
  <circle cx="39" cy="13.5" r="1" fill="#FF4757" opacity="0.8"/>
  <circle cx="38" cy="17" r="0.8" fill="#FF6B6B" opacity="0.7"/>
  
  <!-- Right sparks -->
  <circle cx="39" cy="22" r="1.8" fill="#4ECDC4" opacity="0.9"/>
  <circle cx="40.5" cy="21" r="1.2" fill="#45B7AF" opacity="0.8"/>
  <circle cx="41" cy="24" r="0.9" fill="#4ECDC4" opacity="0.7"/>
  
  <!-- Bottom right sparks -->
  <circle cx="35" cy="30" r="1.5" fill="#A8E6CF" opacity="0.9"/>
  <circle cx="36" cy="31.5" r="1" fill="#7FD1AE" opacity="0.8"/>
  <circle cx="37" cy="29" r="0.8" fill="#A8E6CF" opacity="0.7"/>
  
  <!-- Bottom sparks -->
  <circle cx="27" cy="37" r="1.5" fill="#B4A7D6" opacity="0.9"/>
  <circle cx="25" cy="38.5" r="1" fill="#9B8DC2" opacity="0.8"/>
  
  <!-- Left sparks -->
  <circle cx="12" cy="18" r="1.5" fill="#FFD93D" opacity="0.9"/>
  <circle cx="10.5" cy="16.5" r="1" fill="#FFC107" opacity="0.8"/>
  <circle cx="11" cy="20" r="0.8" fill="#FFD93D" opacity="0.7"/>
  
  <!-- Top left sparks -->
  <circle cx="15" cy="10.5" r="1.8" fill="#FF9FF3" opacity="0.9"/>
  <circle cx="13.5" cy="9" r="1.2" fill="#F368E0" opacity="0.8"/>
  <circle cx="16" cy="8.5" r="0.9" fill="#FF9FF3" opacity="0.7"/>
  
  <!-- Bottom left sparks -->
  <circle cx="13" cy="32" r="1.5" fill="#6BCF7F" opacity="0.9"/>
  <circle cx="11.5" cy="33.5" r="1" fill="#4CAF50" opacity="0.8"/>
  
  <!-- Additional accent sparks -->
  <circle cx="18" cy="6" r="0.8" fill="#FFF" opacity="0.6"/>
  <circle cx="42" cy="28" r="0.8" fill="#FFF" opacity="0.6"/>
  <circle cx="8" cy="24" r="0.8" fill="#FFF" opacity="0.6"/>
  <circle cx="20" cy="40" r="0.8" fill="#FFF" opacity="0.6"/>
</svg>